<?xml version="1.0" standalone="no"?>
<!DOCTYPE svg PUBLIC "-//W3C//DTD SVG 20010904//EN"
 "http://www.w3.org/TR/2001/REC-SVG-20010904/DTD/svg10.dtd">
<svg version="1.0" xmlns="http://www.w3.org/2000/svg"
 width="500.000000pt" height="500.000000pt" viewBox="0 0 500.000000 500.000000"
 preserveAspectRatio="xMidYMid meet">

<g transform="translate(0.000000,500.000000) scale(0.100000,-0.100000)"
fill="#000000" stroke="none">
<path d="M0 4990 c0 -7 840 -10 2500 -10 1660 0 2500 3 2500 10 0 7 -840 10
-2500 10 -1660 0 -2500 -3 -2500 -10z"/>
<path d="M2296 4859 c-158 -23 -361 -107 -437 -181 -91 -88 -110 -212 -51
-329 41 -82 120 -165 200 -214 80 -49 166 -124 219 -192 49 -63 99 -178 108
-248 l6 -50 -30 73 c-80 190 -180 287 -461 447 -91 51 -198 131 -229 171 l-18
24 -26 -58 c-14 -31 -45 -106 -70 -167 -88 -218 -105 -294 -82 -370 23 -81 8
-115 -137 -292 -121 -147 -121 -198 -3 -253 32 -15 50 -16 90 -10 81 14 276
11 370 -5 114 -20 253 -74 329 -129 136 -97 306 -300 456 -545 67 -110 240
-438 240 -455 0 -3 -623 -6 -1385 -6 l-1385 0 0 -1035 0 -1035 2500 0 2500 0
0 1035 0 1035 -919 0 -919 0 -34 43 c-46 57 -108 149 -152 226 -70 121 -96
200 -96 292 0 104 30 152 240 379 229 249 302 355 359 525 50 149 64 257 58
435 -10 285 -84 478 -246 641 -130 130 -287 205 -508 244 -96 16 -384 19 -487
4z m400 -998 c23 -10 52 -34 65 -52 21 -29 24 -46 24 -114 0 -68 -5 -90 -31
-149 -28 -60 -30 -73 -22 -110 12 -53 -4 -108 -39 -135 -39 -31 -113 -29 -150
5 -21 20 -23 24 -8 19 68 -25 91 -28 120 -14 41 20 60 61 46 101 -17 50 -13
95 15 150 74 146 18 267 -124 268 -56 0 -96 -21 -132 -72 -17 -22 -30 -34 -30
-26 0 27 64 110 100 129 44 24 113 24 166 0z m-56 -56 l35 -13 -57 -1 c-49 -1
-62 -5 -92 -32 -19 -16 -38 -39 -41 -49 -9 -28 19 -74 67 -109 23 -17 39 -31
35 -31 -23 0 -77 32 -100 59 -23 28 -27 30 -27 12 0 -21 19 -45 51 -61 27 -15
24 -47 -8 -93 -32 -47 -44 -32 -14 18 23 39 23 39 -37 87 -66 53 41 227 138
227 8 0 31 -7 50 -14z m-2006 -2025 c20 -7 26 -16 26 -37 l-1 -28 -23 28 c-31
39 -79 36 -84 -5 -3 -23 3 -30 46 -52 63 -32 74 -47 70 -93 -3 -32 -9 -41 -39
-57 -31 -17 -44 -18 -85 -10 -47 9 -49 11 -52 44 l-3 35 26 -32 c31 -39 78
-45 95 -13 9 16 6 24 -13 43 -13 12 -38 30 -55 39 -44 24 -61 62 -41 96 25 46
79 63 133 42z m2591 -4 c42 -18 65 -61 65 -123 0 -65 -27 -108 -79 -124 -49
-15 -82 -7 -123 30 -26 23 -32 36 -35 82 -5 64 9 94 56 126 39 27 68 29 116 9z
m229 4 c19 -7 26 -17 26 -35 0 -32 -14 -32 -28 0 -13 29 -61 35 -81 11 -19
-23 2 -52 57 -79 111 -56 64 -172 -62 -153 -49 8 -60 19 -54 58 4 23 5 23 16
-4 11 -28 45 -43 79 -36 13 2 18 12 18 33 0 24 -7 33 -40 51 -53 29 -75 53
-75 80 0 37 11 56 44 70 37 16 66 17 100 4z m-2671 -7 c-8 -3 -13 -24 -13 -54
l0 -49 41 0 41 0 -4 55 -3 55 50 -1 c28 0 44 -3 38 -6 -9 -3 -13 -37 -13 -120
0 -113 0 -114 22 -111 19 2 29 22 64 118 57 160 67 160 123 1 23 -66 48 -122
54 -125 7 -2 -15 -5 -48 -5 -33 0 -55 3 -48 7 8 5 10 17 5 37 -7 26 -14 30
-48 33 -36 3 -40 0 -50 -27 -8 -21 -9 -32 -1 -40 8 -8 -11 -11 -68 -11 l-80 0
3 65 4 65 -41 0 -41 0 0 -53 c0 -29 5 -58 12 -65 9 -9 -1 -12 -46 -12 -51 0
-56 2 -42 15 11 12 15 37 14 108 -1 50 -5 100 -10 110 -8 15 -3 17 44 16 29 0
47 -3 41 -6z m595 -9 c30 -21 29 -68 -2 -91 l-24 -18 30 -57 c21 -40 37 -58
50 -58 18 0 19 7 16 120 l-3 120 68 0 c83 0 123 -19 143 -65 18 -44 18 -79 -1
-119 -26 -55 -58 -66 -188 -66 l-116 0 -27 60 c-15 33 -31 60 -35 60 -14 0
-11 -108 4 -113 6 -3 -12 -6 -41 -6 -49 -1 -52 0 -43 18 12 22 13 127 1 189
l-7 42 76 0 c53 0 83 -5 99 -16z m484 -103 c21 -63 43 -118 50 -123 8 -4 -9
-8 -39 -8 -45 0 -51 2 -46 19 9 36 -14 61 -57 61 -35 0 -39 -3 -45 -30 -4 -16
-4 -34 0 -40 4 -6 -5 -10 -21 -10 -25 0 -26 1 -12 18 9 9 30 62 48 117 40 121
37 117 63 113 16 -2 28 -25 59 -117z m338 87 c-1 -31 -1 -32 -15 -14 -8 11
-15 23 -15 28 0 4 -18 8 -40 8 l-40 0 0 -50 c0 -44 2 -50 21 -50 12 0 28 8 35
18 12 15 13 12 13 -23 0 -32 -2 -36 -10 -22 -5 9 -21 17 -34 17 -24 0 -25 -3
-25 -60 l0 -60 45 0 c39 0 45 3 51 25 9 35 24 31 24 -5 l0 -30 -102 0 c-79 0
-99 3 -90 12 8 8 12 48 12 113 0 65 -4 105 -12 113 -9 9 10 12 85 12 l97 0 0
-32z m128 -6 c13 -20 38 -55 57 -77 l34 -40 1 66 c0 38 -5 70 -12 77 -9 9 -6
12 17 12 23 0 26 -3 17 -12 -8 -8 -12 -50 -12 -125 0 -88 -3 -113 -13 -113 -8
0 -43 39 -78 87 l-64 87 -3 -78 c-2 -57 1 -82 10 -87 8 -5 -3 -8 -27 -8 -22 1
-32 3 -22 6 15 4 17 18 17 105 0 80 -3 105 -17 120 -15 17 -14 18 28 18 40 -1
46 -4 67 -38z m362 31 c0 -5 3 -18 6 -30 8 -31 -9 -29 -26 2 -8 16 -22 25 -37
25 -23 0 -23 -1 -23 -110 0 -93 3 -110 18 -119 13 -8 1 -10 -48 -10 -49 0 -61
2 -47 10 14 9 17 26 17 119 0 102 -1 110 -19 110 -11 0 -29 -12 -40 -27 l-20
-28 -1 33 0 32 110 0 c61 0 110 -3 110 -7z m192 -5 c-7 -7 -12 -31 -12 -55 l0
-43 45 0 45 0 0 43 c0 24 -5 48 -12 55 -9 9 0 12 43 11 29 0 48 -3 42 -6 -9
-3 -13 -37 -13 -118 0 -81 4 -115 13 -118 6 -3 -13 -6 -42 -6 -43 -1 -52 2
-43 11 7 7 12 36 12 65 l0 53 -45 0 -45 0 0 -53 c0 -29 5 -58 12 -65 9 -9 0
-12 -42 -12 -42 0 -51 3 -42 12 16 16 16 210 0 226 -9 9 0 12 42 12 42 0 51
-3 42 -12z m803 -13 c49 -48 21 -112 -53 -122 -41 -5 -42 -7 -42 -42 0 -20 5
-42 12 -49 9 -9 -1 -12 -48 -11 -32 0 -53 3 -46 6 8 3 12 37 12 118 0 81 -4
115 -12 118 -7 3 24 6 70 6 75 1 85 -1 107 -24z m128 18 c-18 -7 -18 -214 -1
-231 9 -9 0 -12 -42 -12 -42 0 -51 3 -42 12 16 16 16 210 0 226 -9 9 0 12 43
11 29 0 48 -3 42 -6z m247 -25 l-1 -33 -20 28 c-11 15 -29 27 -40 27 -18 0
-19 -8 -19 -114 0 -101 2 -115 18 -119 9 -3 -14 -5 -53 -5 -38 0 -62 2 -52 5
15 4 17 18 17 119 0 108 -1 114 -20 114 -12 0 -25 -10 -32 -25 -15 -34 -28
-32 -28 5 l0 30 115 0 115 0 0 -32z m188 -78 c19 -58 41 -113 50 -122 14 -17
12 -18 -37 -18 -33 0 -50 4 -46 10 4 6 4 24 0 40 -6 28 -10 30 -50 30 -40 0
-44 -2 -50 -30 -4 -16 -4 -34 0 -40 4 -6 -6 -10 -26 -10 -31 0 -31 0 -11 18
11 9 28 42 37 72 43 135 56 161 78 158 16 -2 27 -23 55 -108z m165 103 c-9 -3
-13 -37 -13 -119 l0 -114 38 0 c33 0 41 4 55 33 l16 32 0 -37 1 -38 -97 0
c-75 0 -94 3 -85 12 16 16 16 210 0 226 -9 9 0 12 43 11 29 0 48 -3 42 -6z
m-1858 -535 c34 -15 35 -61 0 -84 l-25 -16 27 -35 c23 -30 28 -32 41 -19 9 8
15 29 15 46 0 22 5 30 19 30 22 0 22 3 -2 -48 -27 -55 -25 -66 11 -96 l31 -26
-44 0 c-24 0 -49 5 -55 11 -8 8 -17 7 -34 -5 -79 -55 -173 42 -104 107 23 20
25 27 15 51 -26 68 34 117 105 84z m-993 -536 c5 -5 8 -22 6 -38 l-3 -29 -18
33 c-14 25 -24 32 -47 32 -40 0 -67 -30 -75 -82 -8 -50 8 -119 30 -138 7 -6
24 -10 37 -8 19 2 23 10 26 46 3 36 0 43 -20 51 l-23 9 26 7 c15 3 39 5 55 3
28 -3 28 -5 25 -53 -4 -62 -12 -72 -64 -80 -94 -14 -158 38 -159 130 -1 54 22
91 73 118 36 19 111 19 131 -1z m487 -10 c14 -10 32 -36 39 -58 38 -113 -57
-214 -161 -171 -129 54 -80 270 57 253 22 -2 51 -13 65 -24z m205 18 c19 -7
26 -17 26 -35 0 -31 -12 -32 -25 -2 -8 17 -18 22 -45 22 -31 0 -35 -3 -38 -27
-3 -23 3 -30 40 -49 65 -32 78 -47 78 -89 0 -62 -61 -93 -140 -73 -28 7 -36
15 -38 36 -4 34 4 34 30 2 25 -32 72 -34 89 -3 10 19 8 25 -13 42 -14 12 -39
29 -57 38 -103 56 -19 181 93 138z m590 0 c20 -7 26 -17 26 -37 l-1 -28 -20
28 c-14 18 -30 27 -47 27 -53 0 -72 -33 -72 -122 0 -51 4 -69 20 -86 29 -31
73 -29 99 6 l21 27 -2 -30 c-2 -23 -9 -31 -35 -38 -49 -14 -102 0 -140 38 -29
29 -33 39 -33 88 0 41 5 61 22 82 37 48 106 67 162 45z m310 0 c20 -7 26 -17
26 -37 l-1 -28 -20 28 c-27 36 -70 37 -98 1 -16 -21 -21 -41 -21 -89 0 -79 24
-115 75 -115 29 0 38 6 52 33 16 30 18 31 21 9 5 -31 -13 -50 -55 -58 -45 -9
-103 9 -133 41 -33 36 -39 118 -10 163 32 52 104 75 164 52z m-2208 -34 c30
-30 34 -40 34 -85 0 -95 -45 -131 -162 -131 -56 0 -69 3 -60 12 16 16 16 210
0 226 -9 9 6 12 71 12 81 0 84 -1 117 -34z m147 27 c-9 -3 -13 -37 -13 -119 0
-107 1 -114 20 -114 23 0 38 27 74 135 32 97 38 108 61 103 13 -2 28 -33 54
-109 20 -59 42 -114 50 -123 12 -14 9 -16 -37 -16 -44 0 -50 2 -45 19 9 36
-14 61 -57 61 -35 0 -39 -3 -45 -30 -4 -16 -4 -34 0 -40 4 -6 -22 -10 -75 -10
-51 0 -79 4 -75 10 12 19 17 168 7 204 l-10 36 51 -1 c29 0 46 -3 40 -6z m648
-69 l54 -77 3 68 c2 48 -1 71 -10 76 -8 6 0 8 22 8 19 0 29 -3 23 -6 -10 -3
-13 -38 -13 -124 0 -151 -9 -154 -100 -28 l-65 89 -3 -76 c-2 -47 2 -81 9 -90
9 -12 6 -14 -20 -14 -30 0 -31 1 -16 16 20 21 19 177 -2 212 -13 21 -12 22 25
22 37 0 41 -4 93 -76z m789 44 l-1 -33 -20 28 c-11 15 -29 27 -40 27 -18 0
-19 -8 -19 -110 0 -93 3 -110 18 -119 13 -8 1 -10 -48 -10 -49 0 -61 2 -47 10
14 9 17 26 17 119 0 109 0 110 -23 110 -15 0 -29 -9 -37 -25 -15 -29 -28 -25
-24 7 1 13 3 24 3 26 1 1 51 2 111 2 l110 0 0 -32z m105 -93 l0 -125 -50 1
c-27 0 -44 3 -37 6 8 3 12 37 12 118 0 81 -4 115 -12 118 -7 3 10 6 37 6 l50
1 0 -125z m755 100 c0 -30 -16 -33 -25 -5 -5 16 -15 20 -46 20 l-39 0 0 -50
c0 -44 2 -50 21 -50 12 0 28 8 35 18 12 15 13 12 13 -23 0 -35 -1 -38 -13 -22
-7 9 -23 17 -35 17 -19 0 -21 -5 -21 -60 l0 -60 40 0 c33 0 42 4 52 25 14 31
29 33 24 3 -3 -13 -5 -26 -5 -30 -1 -5 -45 -8 -98 -8 -75 0 -94 3 -85 12 16
16 16 210 0 226 -9 9 10 12 85 12 97 0 97 0 97 -25z m159 -57 l61 -82 0 72 c0
57 -3 73 -17 81 -15 9 -12 10 17 11 26 0 31 -3 22 -12 -8 -8 -12 -50 -12 -125
0 -90 -3 -113 -14 -113 -7 0 -42 39 -77 88 l-64 87 -3 -79 c-2 -57 1 -82 10
-87 8 -6 0 -8 -22 -8 -19 0 -29 3 -22 6 20 8 17 201 -5 225 -15 17 -14 18 24
18 39 0 43 -3 102 -82z m339 52 c3 -36 -14 -39 -30 -5 -7 16 -19 25 -35 25
-23 0 -23 -1 -23 -110 0 -105 1 -111 23 -120 16 -6 4 -9 -48 -9 -52 0 -66 2
-52 10 14 9 17 26 17 119 0 104 -1 110 -20 110 -12 0 -28 -13 -40 -32 l-20
-33 0 38 0 37 113 0 113 0 2 -30z m190 14 c29 -20 29 -61 0 -91 l-23 -24 29
-55 c19 -36 35 -54 47 -54 17 0 19 9 19 114 0 82 -4 116 -12 119 -7 3 31 6 85
6 l97 1 0 -32 -1 -33 -15 28 c-12 21 -22 27 -49 27 l-35 0 0 -50 c0 -44 3 -50
20 -50 11 0 23 7 26 15 9 23 24 7 24 -26 0 -31 -14 -39 -24 -14 -3 8 -15 15
-26 15 -18 0 -20 -6 -20 -60 l0 -60 40 0 c22 0 40 4 40 8 0 5 7 17 15 28 14
18 14 17 15 -13 l0 -33 -138 0 -138 0 -29 60 c-16 33 -32 60 -37 60 -14 0 -9
-108 5 -113 6 -3 -12 -6 -42 -6 -41 -1 -51 2 -43 12 14 17 14 207 0 224 -17
20 140 18 170 -3z"/>
<path d="M3136 1748 c-11 -15 -16 -45 -16 -93 0 -79 17 -115 54 -115 40 0 51
25 51 115 0 89 -11 115 -51 115 -12 0 -30 -10 -38 -22z"/>
<path d="M1027 1676 c-9 -27 -15 -51 -13 -53 2 -3 17 -3 33 -1 l30 3 -17 50
-17 50 -16 -49z"/>
<path d="M1280 1715 c0 -57 6 -63 41 -45 13 7 19 21 19 43 0 37 -15 57 -42 57
-15 0 -18 -9 -18 -55z"/>
<path d="M1520 1655 c0 -66 4 -115 10 -115 23 0 59 24 64 44 3 11 6 46 6 77 0
62 -26 109 -61 109 -18 0 -19 -8 -19 -115z"/>
<path d="M1761 1684 c-7 -21 -15 -45 -17 -51 -4 -9 6 -13 31 -13 40 0 40 2 11
74 l-12 29 -13 -39z"/>
<path d="M3590 1705 c0 -72 16 -86 46 -40 24 37 3 105 -32 105 -11 0 -14 -16
-14 -65z"/>
<path d="M4151 1684 c-7 -21 -15 -45 -17 -51 -4 -9 6 -13 31 -13 40 0 40 2 11
74 l-12 29 -13 -39z"/>
<path d="M2503 1223 c-17 -6 -16 -34 0 -57 12 -16 14 -16 26 -2 14 17 11 58
-4 62 -5 1 -16 0 -22 -3z"/>
<path d="M2466 1085 c-8 -21 13 -62 33 -67 9 -2 24 -2 33 0 15 3 13 9 -14 43
-34 43 -43 47 -52 24z"/>
<path d="M1939 684 c-8 -10 -15 -46 -17 -88 -3 -88 11 -121 53 -121 21 0 33 7
42 25 16 32 16 138 0 170 -15 30 -58 38 -78 14z"/>
<path d="M830 585 c0 -114 0 -115 23 -115 42 0 61 33 61 108 1 80 -20 122 -59
122 l-25 0 0 -115z"/>
<path d="M1191 614 c-8 -22 -16 -45 -18 -51 -4 -9 6 -13 32 -13 40 0 40 2 11
74 l-11 28 -14 -38z"/>
<path d="M3980 645 c0 -59 13 -70 44 -39 32 31 15 94 -26 94 -15 0 -18 -9 -18
-55z"/>
<path d="M1354 3192 c4 -7 14 -12 22 -12 18 0 18 -3 -6 -47 -26 -48 -25 -55 4
-82 21 -20 32 -22 68 -17 24 3 111 7 193 7 140 1 208 -7 310 -38 39 -11 -29
35 -111 76 -79 39 -178 76 -224 84 -14 3 -43 10 -65 15 -66 18 -199 27 -191
14z"/>
</g>
</svg>
